<?xml version="1.0" encoding="utf-8"?>
<!-- Generator: Adobe Illustrator 16.0.0, SVG Export Plug-In . SVG Version: 6.00 Build 0)  -->
<!DOCTYPE svg PUBLIC "-//W3C//DTD SVG 1.1//EN" "http://www.w3.org/Graphics/SVG/1.1/DTD/svg11.dtd">
<svg version="1.1" id="Layer_1" xmlns="http://www.w3.org/2000/svg" xmlns:xlink="http://www.w3.org/1999/xlink" x="0px" y="0px"
	 width="267px" height="238.75px" viewBox="0 0 267 238.75" enable-background="new 0 0 267 238.75" xml:space="preserve">
<g>
	<g>
		<g>
			<path fill="#FFFFFF" d="M126.738,124.999c-34.455,0-62.484-28.029-62.484-62.486c0-34.455,28.029-62.484,62.484-62.484
				c34.457,0,62.486,28.029,62.486,62.484C189.225,96.97,161.195,124.999,126.738,124.999z M126.738,13.725
				c-26.902,0-48.789,21.887-48.789,48.79s21.886,48.791,48.789,48.791c26.904,0,48.792-21.887,48.792-48.791
				S153.643,13.725,126.738,13.725z"/>
		</g>
	</g>
	<g>
		<g>
			<path fill="#FFFFFF" d="M49.506,233.387l-13.682-0.494c2.648-72.95,83.031-84.332,83.843-84.438
				c1.181-0.113,101.01-9.553,111.55,82.666l-13.609,1.559c-8.991-78.677-92.791-70.981-96.342-70.622
				C118.611,162.414,51.736,172.09,49.506,233.387z"/>
		</g>
	</g>
	<g>
		<g>
			<rect x="-0.03" y="225.056" fill="#FFFFFF" width="267.06" height="13.694"/>
		</g>
	</g>
</g>
</svg>
