<?xml version="1.0" encoding="utf-8"?>
<!-- Generator: Adobe Illustrator 16.0.0, SVG Export Plug-In . SVG Version: 6.00 Build 0)  -->
<!DOCTYPE svg PUBLIC "-//W3C//DTD SVG 1.1//EN" "http://www.w3.org/Graphics/SVG/1.1/DTD/svg11.dtd">
<svg version="1.1" id="Layer_1" xmlns="http://www.w3.org/2000/svg" xmlns:xlink="http://www.w3.org/1999/xlink" x="0px" y="0px"
	 width="174.642px" height="174.633px" viewBox="1.5 4.506 174.642 174.633" enable-background="new 1.5 4.506 174.642 174.633"
	 xml:space="preserve">
<g>
	<path fill="#FFFFFF" d="M82.296,121.762v12.83h12.832v-12.83H82.296z M93.699,133.163h-9.974v-9.974h9.974V133.163z"/>
	<path fill="#FFFFFF" d="M59.012,55.077V67.91h12.833V55.077H59.012z M70.415,66.48h-9.973v-9.972h9.973V66.48z"/>
	<path fill="#FFFFFF" d="M105.796,55.077V67.91h12.832V55.077H105.796z M117.2,66.48h-9.974v-9.972h9.974V66.48z"/>
	<path fill="#FFFFFF" d="M82.296,55.077V67.91h12.832V55.077H82.296z M93.699,66.48h-9.974v-9.972h9.974V66.48z"/>
	<path fill="#FFFFFF" d="M59.012,77.304v12.835h12.833V77.304H59.012z M70.415,88.706h-9.973v-9.973h9.973V88.706z"/>
	<path fill="#FFFFFF" d="M105.367,77.304v12.835H118.2V77.304H105.367z M116.771,88.706h-9.975v-9.973h9.975V88.706z"/>
	<path fill="#FFFFFF" d="M82.296,77.304v12.835h12.832V77.304H82.296z M93.699,88.706h-9.974v-9.973h9.974V88.706z"/>
	<path fill="#FFFFFF" d="M59.012,99.533v12.834h12.833V99.533H59.012z M70.415,110.937h-9.973v-9.974h9.973V110.937z"/>
	<path fill="#FFFFFF" d="M105.367,99.533v12.834H118.2V99.533H105.367z M116.771,110.937h-9.975v-9.974h9.975V110.937z"/>
	<path fill="#FFFFFF" d="M82.296,99.533v12.834h12.832V99.533H82.296z M93.699,110.937h-9.974v-9.974h9.974V110.937z"/>
</g>
<path fill="#0273A3" d="M88.818,4.499C40.671,4.499,1.5,43.671,1.5,91.82s39.17,87.319,87.317,87.319
	c48.15,0,87.324-39.171,87.324-87.319S136.968,4.499,88.818,4.499z M88.818,176.928c-46.929,0-85.108-38.18-85.108-85.108
	c0-46.928,38.18-85.107,85.108-85.107c46.931,0,85.112,38.179,85.112,85.107C173.93,138.748,135.748,176.928,88.818,176.928z"/>
</svg>
