<?xml version="1.0" encoding="utf-8"?>
<!-- Generator: Adobe Illustrator 16.0.0, SVG Export Plug-In . SVG Version: 6.00 Build 0)  -->
<!DOCTYPE svg PUBLIC "-//W3C//DTD SVG 1.1//EN" "http://www.w3.org/Graphics/SVG/1.1/DTD/svg11.dtd">
<svg version="1.1" id="Layer_1" xmlns="http://www.w3.org/2000/svg" xmlns:xlink="http://www.w3.org/1999/xlink" x="0px" y="0px"
	 width="233.503px" height="199.099px" viewBox="136.332 152.618 233.503 199.099"
	 enable-background="new 136.332 152.618 233.503 199.099" xml:space="preserve">
<g>
	<g>
		<g>
			<rect x="197.026" y="152.618" fill="#FFFFFF" width="18.556" height="69.587"/>
		</g>
	</g>
	<g>
		<g>
			<rect x="295.223" y="152.618" fill="#FFFFFF" width="18.558" height="69.587"/>
		</g>
	</g>
	<g>
		<rect x="199.346" y="180.068" fill="#FFFFFF" width="79.64" height="18.557"/>
		<polygon fill="#FFFFFF" points="297.543,180.068 297.543,198.625 351.278,198.625 351.278,333.16 154.889,333.16 154.889,198.625 
			180.789,198.625 180.789,180.068 136.332,180.068 136.332,351.717 369.835,351.717 369.835,180.068 		"/>
	</g>
	<g>
		<g>
			<g>
				<rect x="184.269" y="265.117" fill="#FFFFFF" width="16.237" height="18.557"/>
			</g>
		</g>
		<g>
			<g>
				<rect x="225.441" y="265.117" fill="#FFFFFF" width="16.237" height="18.557"/>
			</g>
		</g>
		<g>
			<g>
				<rect x="266.613" y="265.117" fill="#FFFFFF" width="16.236" height="18.557"/>
			</g>
		</g>
		<g>
			<g>
				<rect x="307.786" y="265.117" fill="#FFFFFF" width="16.237" height="18.557"/>
			</g>
		</g>
	</g>
	<g>
		<g>
			<g>
				<rect x="184.269" y="300.491" fill="#FFFFFF" width="16.237" height="18.557"/>
			</g>
		</g>
		<g>
			<g>
				<rect x="225.441" y="300.491" fill="#FFFFFF" width="16.237" height="18.557"/>
			</g>
		</g>
		<g>
			<g>
				<rect x="266.613" y="300.491" fill="#FFFFFF" width="16.236" height="18.557"/>
			</g>
		</g>
		<g>
			<g>
				<rect x="307.786" y="300.491" fill="#FFFFFF" width="16.237" height="18.557"/>
			</g>
		</g>
	</g>
	<g>
		<g>
			<rect x="150.055" y="232.064" fill="#FFFFFF" width="207.603" height="18.557"/>
		</g>
	</g>
</g>
</svg>
