<?xml version="1.0" encoding="utf-8"?>
<!-- Generator: Adobe Illustrator 16.0.0, SVG Export Plug-In . SVG Version: 6.00 Build 0)  -->
<!DOCTYPE svg PUBLIC "-//W3C//DTD SVG 1.1//EN" "http://www.w3.org/Graphics/SVG/1.1/DTD/svg11.dtd">
<svg version="1.1" id="Layer_1" xmlns="http://www.w3.org/2000/svg" xmlns:xlink="http://www.w3.org/1999/xlink" x="0px" y="0px"
	 width="174.643px" height="174.633px" viewBox="0 0 174.643 174.633" enable-background="new 0 0 174.643 174.633"
	 xml:space="preserve">
<path fill="#0273A3" d="M87.319,0C39.172,0,0.001,39.172,0.001,87.321s39.17,87.319,87.317,87.319
	c48.149,0,87.324-39.172,87.324-87.319C174.642,39.173,135.469,0,87.319,0z M87.319,172.43c-46.929,0-85.108-38.18-85.108-85.108
	c0-46.928,38.181-85.107,85.108-85.107c46.931,0,85.112,38.179,85.112,85.107C172.431,134.25,134.249,172.43,87.319,172.43z"/>
<g>
	<g>
		<path fill="#FFFFFF" d="M97.149,127.576H77.494V110.88h19.655V127.576z M79.494,125.576h15.655V112.88H79.494V125.576z
			 M93.637,105.976H81.005l-3.573-58.911h19.78L93.637,105.976z M82.887,103.976h8.867l3.332-54.911h-15.53L82.887,103.976z"/>
	</g>
</g>
</svg>
